<svg width="12" height="14" viewBox="0 0 12 14" fill="none" xmlns="http://www.w3.org/2000/svg">
<path d="M9.95999 10.164C11.0103 9.11313 11.6003 7.68817 11.6003 6.2024C11.6003 4.71663 11.0103 3.29167 9.95999 2.2408C9.44008 1.72054 8.82275 1.30783 8.14328 1.02625C7.4638 0.744663 6.7355 0.599731 5.99999 0.599731C5.26448 0.599731 4.53618 0.744663 3.8567 1.02625C3.17723 1.30783 2.5599 1.72054 2.03999 2.2408C0.989664 3.29167 0.399643 4.71663 0.399643 6.2024C0.399643 7.68817 0.989664 9.11313 2.03999 10.164L3.25679 11.3632L4.89119 12.9512L4.99759 13.0456C5.61759 13.548 6.52559 13.516 7.10959 12.9512L9.05759 11.0552L9.95999 10.164ZM5.99999 8.6C5.36347 8.6 4.75302 8.34714 4.30293 7.89706C3.85285 7.44697 3.59999 6.83652 3.59999 6.2C3.59999 5.56348 3.85285 4.95303 4.30293 4.50294C4.75302 4.05286 5.36347 3.8 5.99999 3.8C6.63651 3.8 7.24696 4.05286 7.69705 4.50294C8.14713 4.95303 8.39999 5.56348 8.39999 6.2C8.39999 6.83652 8.14713 7.44697 7.69705 7.89706C7.24696 8.34714 6.63651 8.6 5.99999 8.6Z" fill="#227EFF"/>
</svg>
