<svg width="16" height="16" viewBox="0 0 16 16" fill="none" xmlns="http://www.w3.org/2000/svg">
<path d="M3.41333 3.33333H12.58L11.9533 2.66667H3.95333L3.41333 3.33333ZM13.6933 3.48667C13.8867 3.71333 14 4 14 4.33333V12.6667C14 13.0203 13.8595 13.3594 13.6095 13.6095C13.3594 13.8595 13.0203 14 12.6667 14H3.33333C2.97971 14 2.64057 13.8595 2.39052 13.6095C2.14048 13.3594 2 13.0203 2 12.6667V4.33333C2 4 2.11333 3.71333 2.30667 3.48667L3.22667 2.36667C3.41333 2.14 3.68667 2 4 2H12C12.3133 2 12.5867 2.14 12.7667 2.36667L13.6933 3.48667ZM4 12H8V10H4V12Z" fill="#7E42F5"/>
</svg>
