<svg width="48" height="48" viewBox="0 0 48 48" fill="none" xmlns="http://www.w3.org/2000/svg">
<rect width="48" height="48" rx="4" fill="#7E42F5"/>
<path d="M33.3125 25.0626C33.7708 24.5376 34 23.9169 34 23.2001C34 22.5501 33.7622 21.9877 33.2882 21.5125C32.8132 21.0373 32.2508 20.7998 31.6008 20.7998H28.1384C28.1717 20.6832 28.2051 20.5832 28.2384 20.4999C28.2713 20.4165 28.3176 20.3248 28.3757 20.2248C28.4339 20.1247 28.4757 20.0497 28.5006 19.9998C28.6506 19.7166 28.7654 19.4831 28.8446 19.2999C28.9237 19.1164 29.0025 18.8665 29.0819 18.5498C29.1612 18.2333 29.2006 17.9165 29.2006 17.5999C29.2006 17.3999 29.1982 17.2373 29.1942 17.1124C29.1903 16.9874 29.1691 16.7998 29.1319 16.5498C29.0942 16.2999 29.0441 16.0915 28.9818 15.925C28.9192 15.7583 28.8191 15.5707 28.6818 15.3625C28.5443 15.1539 28.3777 14.9854 28.1817 14.8562C27.9857 14.727 27.7358 14.6187 27.4316 14.5313C27.1272 14.4437 26.7836 14.4 26.4001 14.4C26.1834 14.4 25.9961 14.4792 25.8376 14.6376C25.671 14.8042 25.5291 15.0125 25.4125 15.2624C25.2958 15.5124 25.2145 15.7291 25.1686 15.9125C25.1228 16.0958 25.0706 16.3501 25.0125 16.675C24.9373 17.0251 24.8813 17.2771 24.8435 17.4312C24.8061 17.5854 24.733 17.7874 24.6248 18.0374C24.5163 18.2875 24.3873 18.4873 24.2373 18.6374C23.9623 18.9124 23.5415 19.4124 22.9747 20.1373C22.5663 20.6706 22.1455 21.1747 21.7122 21.6498C21.2788 22.1249 20.9622 22.3707 20.7622 22.3874C20.554 22.404 20.3749 22.4894 20.2248 22.6437C20.0748 22.7978 19.9998 22.9791 19.9998 23.1874V31.1998C19.9998 31.4165 20.0789 31.6018 20.2372 31.756C20.3955 31.9103 20.583 31.9915 20.7997 31.9999C21.0913 32.0083 21.7497 32.1914 22.7747 32.5501C23.4163 32.7664 23.9183 32.9312 24.2808 33.0436C24.6432 33.1559 25.1498 33.2768 25.7993 33.4062C26.4494 33.5353 27.0493 33.6 27.5992 33.6H27.8118H28.7618H29.2117C30.3203 33.5834 31.1408 33.2583 31.6743 32.6251C32.1575 32.05 32.3615 31.2958 32.2868 30.3625C32.6117 30.0542 32.8369 29.6627 32.9617 29.1876C33.1032 28.6795 33.1032 28.192 32.9617 27.7254C33.345 27.2171 33.5242 26.6462 33.499 26.0129C33.5001 25.746 33.4377 25.4294 33.3125 25.0626Z" fill="white"/>
<path d="M18.4 22.4001H14.8002C14.5833 22.4001 14.3958 22.4793 14.2375 22.6377C14.0792 22.7959 14 22.9834 14 23.2001V31.2004C14 31.4168 14.0792 31.6044 14.2376 31.7629C14.396 31.921 14.5835 32.0002 14.8002 32.0002H18.4C18.6167 32.0002 18.8041 31.921 18.9625 31.7629C19.1208 31.6044 19.2 31.4168 19.2 31.2004V23.2001C19.2 22.9834 19.1208 22.796 18.9625 22.6377C18.8041 22.4792 18.6167 22.4001 18.4 22.4001ZM16.9625 30.1689C16.8042 30.323 16.6167 30.4001 16.4 30.4001C16.175 30.4001 15.9854 30.323 15.8313 30.1689C15.6771 30.0147 15.6001 29.8252 15.6001 29.6001C15.6001 29.3835 15.6771 29.1959 15.8313 29.0377C15.9854 28.8793 16.175 28.8 16.4 28.8C16.6167 28.8 16.8042 28.8793 16.9625 29.0377C17.1208 29.1959 17.2 29.3835 17.2 29.6001C17.2 29.8252 17.121 30.0147 16.9625 30.1689Z" fill="#CAB3FB"/>
</svg>
